<?xml version="1.0" standalone="no"?>
<!DOCTYPE svg PUBLIC "-//W3C//DTD SVG 20010904//EN"
 "http://www.w3.org/TR/2001/REC-SVG-20010904/DTD/svg10.dtd">
<svg version="1.0" xmlns="http://www.w3.org/2000/svg"
 width="500.000000pt" height="500.000000pt" viewBox="0 0 500.000000 500.000000"
 preserveAspectRatio="xMidYMid meet">
<metadata>
Created by potrace 1.14, written by Peter Selinger 2001-2017
</metadata>
<g transform="translate(0.000000,500.000000) scale(0.100000,-0.100000)"
fill="#000000" stroke="none">
<path d="M2171 4295 c-768 -117 -1371 -678 -1536 -1427 l-17 -78 -97 0 -96 0
-92 -143 c-51 -79 -93 -146 -93 -150 0 -3 43 -72 95 -152 l95 -145 94 0 94 0
22 -97 c59 -259 174 -506 327 -706 65 -85 213 -237 298 -307 427 -349 1006
-491 1548 -380 507 105 957 428 1219 876 94 159 191 417 213 567 l7 47 112 0
111 0 97 149 96 149 -93 144 -94 143 -112 5 -113 5 -27 110 c-113 457 -379
838 -769 1100 -184 123 -442 229 -675 275 -143 29 -470 37 -614 15z m-393
-671 c83 -34 131 -110 132 -207 0 -70 -23 -119 -79 -170 -157 -142 -411 14
-361 222 14 57 65 122 119 151 45 24 137 26 189 4z m1520 -16 c79 -53 118
-160 92 -252 -48 -171 -274 -218 -388 -81 -90 110 -56 280 70 344 63 32 168
27 226 -11z m-588 -828 c478 -60 886 -250 1167 -543 98 -103 203 -251 203
-287 0 -37 -86 -229 -149 -332 -594 -976 -1935 -1134 -2736 -323 -155 157
-279 340 -360 534 -56 131 -55 134 6 225 96 144 285 324 452 429 380 241 933
357 1417 297z"/>
<path d="M1615 3578 c-102 -56 -131 -166 -69 -261 68 -104 227 -99 290 9 54
92 23 202 -68 250 -32 17 -125 18 -153 2z"/>
<path d="M3110 3583 c-105 -43 -143 -179 -75 -268 31 -41 94 -75 140 -75 38 0
104 31 132 61 67 74 53 202 -29 260 -23 17 -48 24 -93 26 -33 1 -67 0 -75 -4z"/>
<path d="M1769 2471 c-66 -13 -147 -50 -169 -79 -111 -140 286 -249 477 -131
39 24 67 72 58 99 -10 32 -72 78 -125 94 -65 19 -182 27 -241 17z"/>
<path d="M2882 2465 c-119 -26 -191 -91 -164 -149 26 -58 149 -106 272 -106
122 0 246 48 272 105 27 60 -43 124 -168 150 -84 18 -129 18 -212 0z"/>
<path d="M1141 2021 c-65 -23 -102 -49 -120 -86 -17 -36 -2 -68 48 -102 117
-79 380 -69 469 18 43 43 42 73 -7 119 -26 25 -57 42 -98 53 -81 23 -222 22
-292 -2z"/>
<path d="M3405 2020 c-168 -55 -165 -169 7 -221 133 -41 334 -13 396 54 50 55
25 113 -66 155 -79 36 -246 42 -337 12z"/>
</g>
</svg>
